<?xml version="1.0" encoding="UTF-8"?>
<!-- Motif du logo GeoMys (oiseau sur épingle), vectorisé depuis logo_geomys.png
     (potrace, seuil R>170). Blanc, fond transparent : sert de couche foreground
     pour l'icône adaptative Android (le fond dégradé est un drawable séparé). -->
<svg xmlns="http://www.w3.org/2000/svg" viewBox="0 0 2048 2048">
  <path fill="#FFFFFF" fill-rule="evenodd" d="M 1035.00,1927.35 C 1001.95,1926.87 905.97,1922.68 900.53,1921.48 C 899.41,1921.23 891.30,1920.56 882.50,1919.98 C 863.33,1918.73 833.28,1915.72 812.00,1912.92 C 803.48,1911.80 792.90,1910.46 788.50,1909.95 C 773.64,1908.19 740.54,1902.51 715.00,1897.33 C 663.41,1886.87 617.62,1872.14 592.00,1857.77 C 578.20,1850.03 565.56,1838.65 561.96,1830.73 C 558.96,1824.12 559.32,1813.90 562.77,1807.25 C 574.22,1785.19 614.12,1765.78 682.50,1748.99 C 700.70,1744.52 701.01,1744.46 723.00,1740.51 C 745.85,1736.40 764.98,1733.25 771.50,1732.53 C 774.80,1732.16 783.80,1731.03 791.50,1730.00 C 817.75,1726.51 837.41,1724.51 864.50,1722.58 C 880.65,1721.42 912.00,1719.71 920.37,1719.52 C 921.14,1719.50 932.98,1738.16 932.56,1738.72 C 932.47,1738.84 925.89,1739.41 917.95,1739.99 C 910.00,1740.57 899.90,1741.48 895.50,1742.03 C 891.10,1742.58 882.33,1743.45 876.00,1743.97 C 850.97,1746.01 825.03,1749.37 797.00,1754.18 C 790.67,1755.27 782.80,1756.59 779.50,1757.12 C 758.30,1760.55 717.81,1770.85 697.61,1777.95 C 663.11,1790.07 643.94,1805.20 646.40,1818.34 C 649.02,1832.30 673.92,1846.69 716.66,1858.94 C 724.45,1861.17 733.90,1863.68 737.66,1864.53 C 793.72,1877.09 843.83,1884.14 918.00,1889.91 C 948.48,1892.28 975.41,1893.49 1034.50,1895.16 C 1077.07,1896.37 1132.66,1895.59 1189.00,1892.99 C 1237.07,1890.77 1297.01,1885.23 1341.50,1878.89 C 1409.58,1869.19 1456.74,1857.18 1484.93,1842.36 C 1537.67,1814.63 1504.97,1784.59 1396.00,1760.63 C 1360.97,1752.93 1289.33,1743.57 1240.75,1740.35 C 1235.39,1740.00 1231.00,1739.35 1231.00,1738.92 C 1231.00,1738.49 1232.71,1735.52 1234.80,1732.32 C 1236.90,1729.12 1239.57,1724.94 1240.75,1723.02 L 1242.89,1719.55 L 1250.70,1719.83 C 1286.95,1721.12 1360.90,1728.76 1407.50,1736.01 C 1434.59,1740.22 1444.57,1742.09 1469.00,1747.56 C 1477.69,1749.50 1511.25,1759.02 1521.50,1762.45 C 1545.05,1770.33 1566.10,1780.93 1578.50,1791.15 C 1590.70,1801.19 1594.12,1806.89 1594.80,1818.23 C 1595.21,1825.13 1594.96,1826.55 1592.55,1831.50 C 1583.39,1850.21 1549.81,1868.80 1498.50,1883.54 C 1444.03,1899.20 1363.96,1912.69 1288.00,1919.03 C 1281.67,1919.56 1271.33,1920.45 1265.00,1921.01 C 1245.21,1922.75 1225.47,1923.90 1197.00,1924.97 C 1181.88,1925.54 1166.58,1926.23 1163.00,1926.50 C 1155.30,1927.08 1060.14,1927.71 1035.00,1927.35 Z M 1078.01,1830.40 C 1074.99,1829.59 1071.24,1827.70 1069.68,1826.21 C 1066.28,1822.98 1051.70,1804.98 1037.65,1786.66 C 1032.07,1779.39 1026.15,1771.70 1024.50,1769.58 C 1015.02,1757.37 980.07,1711.29 975.22,1704.61 C 972.07,1700.28 967.92,1694.57 966.00,1691.94 C 926.88,1638.39 885.32,1577.72 863.44,1542.24 C 859.62,1536.04 854.06,1527.04 851.09,1522.24 C 844.14,1511.03 825.05,1477.03 819.50,1465.99 C 806.88,1440.90 792.20,1400.25 786.61,1375.00 C 776.69,1330.12 775.48,1287.30 783.01,1247.50 C 787.87,1221.80 795.77,1196.47 805.29,1176.00 C 813.95,1157.37 815.18,1154.95 820.68,1145.78 C 842.70,1109.08 869.48,1079.89 905.13,1053.76 C 930.30,1035.30 969.64,1016.00 997.59,1008.40 C 1003.04,1006.92 1007.86,1005.39 1008.31,1005.00 C 1009.05,1004.35 1004.88,997.98 988.59,974.86 C 973.36,953.24 959.98,934.17 949.03,918.44 L 937.15,901.38 L 922.32,900.15 C 892.27,897.65 858.66,893.43 839.50,889.74 C 831.24,888.14 824.52,887.60 812.50,887.57 C 797.66,887.53 795.89,887.72 788.15,890.28 C 772.91,895.30 757.89,903.49 739.47,916.82 C 724.84,927.40 718.84,931.83 712.88,936.45 C 709.37,939.17 699.98,946.34 692.00,952.38 C 684.02,958.43 674.09,966.10 669.91,969.44 C 662.31,975.51 637.34,994.85 627.00,1002.66 C 623.98,1004.95 619.02,1008.76 616.00,1011.12 C 595.97,1026.77 580.54,1037.74 574.50,1040.61 C 565.85,1044.74 558.79,1045.59 525.00,1046.55 C 511.52,1046.94 498.93,1047.38 497.00,1047.53 C 495.07,1047.68 480.12,1047.90 463.77,1048.01 C 436.41,1048.19 433.79,1048.06 430.88,1046.36 C 423.08,1041.79 424.23,1038.32 436.88,1028.31 C 442.31,1024.01 449.67,1018.25 453.23,1015.50 C 470.24,1002.35 484.99,990.93 501.00,978.53 C 510.62,971.07 520.68,963.28 523.34,961.23 C 533.19,953.65 549.66,940.79 555.00,936.52 C 564.61,928.84 586.27,911.78 596.91,903.50 C 612.26,891.56 631.08,876.62 643.92,866.17 C 659.09,853.84 658.60,854.02 685.00,850.56 C 740.07,843.33 771.57,838.18 807.50,830.55 C 878.94,815.37 916.53,805.59 956.00,791.91 C 970.57,786.87 977.74,784.00 999.00,774.72 C 1024.42,763.62 1036.42,757.37 1059.37,743.28 C 1107.28,713.87 1147.48,673.70 1169.28,633.48 C 1182.63,608.85 1192.29,581.70 1196.51,557.00 C 1199.34,540.42 1197.81,536.09 1193.35,548.04 C 1186.97,565.09 1169.62,595.31 1156.62,612.00 C 1136.83,637.40 1105.88,667.92 1082.00,685.59 C 1064.15,698.80 1053.55,705.56 1030.99,718.13 C 1018.50,725.09 989.85,739.07 977.93,744.03 C 934.59,762.05 875.32,780.00 826.00,790.03 C 820.23,791.21 812.58,792.79 809.00,793.55 C 793.40,796.87 769.93,801.15 740.50,806.04 C 733.90,807.14 721.98,809.14 714.00,810.48 C 700.14,812.80 674.74,816.50 651.81,819.53 C 640.25,821.05 635.83,820.41 633.98,816.96 C 631.69,812.68 631.49,812.98 653.92,787.00 C 661.10,778.69 686.63,748.54 703.50,728.46 C 711.75,718.64 720.12,708.78 722.09,706.55 C 724.07,704.32 735.03,691.25 746.46,677.50 C 757.88,663.75 773.65,644.85 781.49,635.50 C 799.80,613.68 810.92,600.31 814.03,596.37 C 815.39,594.65 823.39,585.08 831.82,575.10 C 887.39,509.27 940.81,457.49 995.05,416.90 C 1011.94,404.25 1050.48,378.67 1062.98,371.80 C 1072.06,366.82 1080.43,358.59 1084.72,350.45 C 1086.47,347.13 1091.33,335.88 1095.52,325.45 C 1114.21,278.96 1132.87,247.95 1157.94,221.74 C 1175.47,203.42 1192.63,190.68 1215.42,179.09 C 1268.48,152.12 1330.51,152.72 1380.50,180.69 C 1392.42,187.36 1396.71,190.36 1406.85,199.10 C 1425.28,215.01 1438.00,230.30 1451.31,252.59 L 1454.95,258.68 L 1465.73,261.44 C 1471.65,262.96 1482.80,265.93 1490.50,268.03 C 1498.20,270.13 1512.38,273.97 1522.00,276.55 C 1557.01,285.95 1560.78,287.14 1563.02,289.52 C 1565.55,292.22 1565.06,295.10 1561.71,297.21 C 1560.49,297.98 1554.33,300.78 1548.00,303.42 C 1541.67,306.07 1532.63,309.99 1527.91,312.12 C 1523.18,314.25 1518.97,316.00 1518.56,316.00 C 1518.14,316.00 1512.78,318.21 1506.65,320.91 C 1500.52,323.61 1490.33,327.93 1484.00,330.52 C 1458.23,341.08 1455.31,343.49 1442.54,364.75 C 1416.62,407.92 1402.15,451.31 1394.96,507.50 C 1393.84,516.30 1392.50,526.75 1391.99,530.73 C 1389.48,550.20 1384.25,577.48 1379.85,594.00 C 1378.17,600.33 1376.45,607.08 1376.04,609.00 C 1374.97,614.01 1364.57,644.48 1359.37,657.85 C 1350.73,680.04 1333.40,712.45 1319.19,733.00 C 1272.26,800.85 1195.48,855.69 1112.00,880.98 C 1106.22,882.72 1099.92,884.63 1098.00,885.20 C 1096.08,885.77 1094.09,886.62 1093.60,887.07 C 1093.08,887.55 1095.23,890.93 1098.60,894.96 C 1101.84,898.84 1106.30,904.20 1108.50,906.87 C 1110.70,909.54 1116.04,915.95 1120.37,921.11 C 1124.70,926.28 1133.48,936.76 1139.87,944.41 C 1146.27,952.06 1155.10,962.44 1159.50,967.49 C 1163.90,972.53 1175.59,985.97 1185.49,997.35 C 1202.27,1016.65 1203.84,1018.17 1208.99,1020.09 C 1216.93,1023.05 1240.71,1035.71 1252.22,1043.09 C 1321.93,1087.81 1368.19,1154.69 1384.96,1235.00 C 1389.90,1258.67 1391.39,1273.46 1391.36,1298.50 C 1391.33,1323.32 1390.46,1331.53 1383.98,1368.00 C 1382.42,1376.80 1374.76,1402.44 1369.53,1416.36 C 1356.73,1450.46 1349.76,1465.19 1328.60,1502.85 C 1306.57,1542.05 1262.82,1608.38 1220.92,1666.10 C 1216.29,1672.48 1209.59,1681.70 1206.03,1686.60 C 1197.75,1698.01 1171.95,1732.54 1162.03,1745.50 C 1157.82,1751.00 1149.23,1762.19 1142.94,1770.38 C 1136.65,1778.56 1129.03,1788.50 1126.00,1792.48 C 1105.66,1819.22 1099.11,1826.59 1093.50,1829.05 C 1087.38,1831.73 1084.00,1832.02 1078.01,1830.40 Z M 1110.00,1448.02 C 1129.39,1444.09 1143.48,1438.85 1158.18,1430.10 C 1172.84,1421.36 1180.33,1415.49 1191.09,1404.27 C 1235.04,1358.45 1245.15,1290.49 1216.82,1231.32 C 1195.32,1186.41 1154.38,1155.90 1105.50,1148.36 C 1092.05,1146.28 1068.32,1147.03 1054.50,1149.97 C 1013.08,1158.78 976.13,1187.09 955.20,1226.06 C 946.86,1241.61 941.59,1257.91 938.42,1278.00 C 936.29,1291.44 936.98,1316.03 939.87,1330.00 C 943.70,1348.55 952.99,1370.76 963.31,1386.00 C 986.85,1420.81 1026.05,1444.51 1067.50,1449.00 C 1077.48,1450.08 1102.67,1449.50 1110.00,1448.02 Z M 1141.00,1000.93 C 1141.00,999.91 1133.25,990.88 1120.92,977.54 C 1117.85,974.22 1111.77,967.44 1107.42,962.47 C 1095.88,949.31 1067.09,917.10 1051.65,900.07 C 1047.04,895.00 1046.36,894.92 1028.99,897.48 C 1023.75,898.25 1011.60,899.42 1001.99,900.08 C 992.37,900.75 984.35,901.42 984.16,901.57 C 983.83,901.84 990.20,911.30 1006.66,935.00 C 1021.54,956.43 1023.88,959.79 1033.09,972.84 C 1038.27,980.18 1043.96,988.28 1045.75,990.84 C 1051.58,999.18 1050.62,998.73 1060.58,997.73 C 1072.47,996.52 1108.32,997.50 1124.50,999.47 C 1131.65,1000.34 1137.95,1001.23 1138.50,1001.45 C 1140.31,1002.16 1141.00,1002.02 1141.00,1000.93 Z M 1348.76,315.48 C 1355.58,313.45 1363.93,305.85 1367.09,298.77 C 1370.32,291.55 1370.43,279.58 1367.32,272.82 C 1364.29,266.22 1357.73,259.51 1351.14,256.27 C 1346.40,253.94 1344.22,253.50 1337.50,253.50 C 1330.75,253.50 1328.60,253.94 1323.77,256.31 C 1316.68,259.79 1309.72,267.50 1306.88,275.00 C 1304.23,282.00 1304.64,292.46 1307.80,298.63 C 1310.30,303.50 1317.91,311.38 1322.36,313.70 C 1329.11,317.22 1340.35,317.98 1348.76,315.48 Z"/>
</svg>
